<svg version="1.1" id="Layer_1" xmlns="http://www.w3.org/2000/svg" xmlns:xlink="http://www.w3.org/1999/xlink" x="0px" y="0px"
	 width="100%" viewBox="0 0 512 512" enable-background="new 0 0 512 512" xml:space="preserve">
<path fill="#F9A825" opacity="1.000000" stroke="none" 
	d="
M0.999997,476.000000 
	C1.000000,330.309265 1.000000,184.618515 1.279939,38.803329 
	C2.009586,38.216511 2.703655,37.829746 2.873546,37.280769 
	C8.221615,19.999359 19.641598,8.740179 36.661972,2.932444 
	C37.258343,2.728949 37.560642,1.663636 38.000000,1.000000 
	C183.690750,1.000000 329.381500,1.000000 475.196655,1.279939 
	C475.783478,2.009586 476.170258,2.703645 476.719238,2.873542 
	C494.000610,8.221622 505.259857,19.641562 511.067566,36.661968 
	C511.271057,37.258339 512.336365,37.560638 513.000000,38.000000 
	C513.000000,183.690750 513.000000,329.381500 512.720093,475.196655 
	C511.990387,475.783478 511.296326,476.170258 511.126434,476.719238 
	C505.778320,494.000641 494.358398,505.259857 477.338043,511.067566 
	C476.741669,511.271057 476.439362,512.336365 476.000000,513.000000 
	C330.309265,513.000000 184.618515,513.000000 38.803333,512.720093 
	C38.216511,511.990417 37.829750,511.296326 37.280766,511.126465 
	C19.999290,505.778473 8.740251,494.358337 2.932429,477.338043 
	C2.728933,476.741669 1.663630,476.439362 0.999997,476.000000 
M113.266411,140.791748 
	C111.422714,143.555740 109.175194,146.134689 107.808464,149.117249 
	C103.066177,159.466202 102.024605,169.968781 108.253235,180.147980 
	C110.973358,184.593353 114.079521,185.037521 118.340271,182.088593 
	C120.112167,180.862244 121.712433,179.374619 123.322250,177.929504 
	C133.098282,169.153763 143.900742,162.155090 156.610611,158.349915 
	C171.337677,153.940826 186.391846,152.176346 202.238358,151.977264 
	C201.710403,153.550095 201.416275,154.465820 201.096725,155.372574 
	C191.318893,183.118317 181.423218,210.823685 171.885574,238.651749 
	C170.489639,242.724716 168.691147,244.815582 164.489105,246.017487 
	C148.125671,250.697906 132.790283,257.509064 121.386734,270.768036 
	C118.418495,274.219238 115.966492,278.405914 114.362106,282.663574 
	C112.430984,287.788269 114.586731,290.364227 120.038139,290.323822 
	C125.027672,290.286865 130.029770,289.955872 134.997772,289.465332 
	C142.566360,288.717957 150.110291,287.721222 158.240082,286.762543 
	C157.886978,288.785095 157.668701,290.203674 157.389343,291.610077 
	C153.079803,313.307251 148.232132,334.914734 144.606888,356.725464 
	C141.451050,375.712219 142.153275,394.923218 144.921265,413.979248 
	C145.868149,420.497986 149.377518,424.456787 154.951218,424.774811 
	C168.688416,425.558624 182.340698,424.699799 195.075333,418.848053 
	C203.635559,414.914490 208.350922,408.229767 208.359543,398.367645 
	C208.365952,391.050293 208.861572,383.712189 209.537308,376.420197 
	C212.433304,345.168213 219.254776,314.650360 226.847946,284.268250 
	C227.785339,280.517456 229.205429,279.006897 233.105469,279.103119 
	C255.252548,279.649506 277.404785,279.983185 299.553375,280.475098 
	C305.273926,280.602112 310.987610,281.037842 316.189789,281.305328 
	C312.894257,305.451477 309.354889,328.973083 306.587158,352.585144 
	C304.977325,366.319183 304.833496,380.187286 307.956909,393.857666 
	C310.357880,404.366211 315.524445,412.799774 326.125916,416.565735 
	C336.940887,420.407501 348.171143,421.679474 359.584625,420.087280 
	C367.796173,418.941803 370.763367,415.307556 371.099670,407.153595 
	C371.772369,390.844482 371.398712,374.388336 373.514465,358.262878 
	C378.925720,317.019897 385.255676,275.892517 391.615936,234.780457 
	C397.288391,198.114227 403.862823,161.584320 409.221405,124.874886 
	C410.689575,114.817200 409.454956,104.319511 408.983490,94.045639 
	C408.783966,89.698067 405.489777,87.949608 401.447998,89.394684 
	C397.895508,90.664848 394.297943,92.273987 391.279114,94.493530 
	C375.829376,105.852646 365.495178,121.140869 357.949677,138.564392 
	C344.941010,168.603088 336.308624,200.030655 328.289307,231.645950 
	C327.404785,235.133057 326.017548,236.038193 322.559509,235.965149 
	C301.073425,235.511246 279.582428,235.283600 258.092651,235.016571 
	C252.536957,234.947540 246.979675,235.006180 241.159180,235.006180 
	C241.551010,233.311020 241.750626,232.344650 241.998322,231.390732 
	C248.894180,204.833603 255.790482,178.276566 262.710724,151.725769 
	C262.995819,150.631943 263.305725,149.446472 263.954834,148.560776 
	C270.628632,139.454849 272.890839,128.976288 273.322083,118.011642 
	C273.684357,108.799873 267.178802,101.995392 257.910278,102.124390 
	C222.805145,102.612953 188.086426,106.071396 154.500000,117.029655 
	C139.367950,121.966774 124.912323,128.284058 113.266411,140.791748 
z"/>
<path fill="#000000" opacity="1.000000" stroke="none" 
	d="
M37.531342,1.000000 
	C37.560642,1.663636 37.258343,2.728949 36.661972,2.932444 
	C19.641598,8.740179 8.221615,19.999359 2.873546,37.280769 
	C2.703655,37.829746 2.009586,38.216511 1.279939,38.339447 
	C1.000000,25.740049 1.000000,13.480098 1.000000,1.000000 
	C13.020000,1.000000 25.041342,1.000000 37.531342,1.000000 
z"/>
<path fill="#000000" opacity="1.000000" stroke="none" 
	d="
M513.000000,37.531342 
	C512.336365,37.560638 511.271057,37.258339 511.067566,36.661968 
	C505.259857,19.641562 494.000610,8.221622 476.719238,2.873542 
	C476.170258,2.703645 475.783478,2.009586 475.660553,1.279939 
	C488.259949,1.000000 500.519897,1.000000 513.000000,1.000000 
	C513.000000,13.020000 513.000000,25.041342 513.000000,37.531342 
z"/>
<path fill="#000000" opacity="1.000000" stroke="none" 
	d="
M0.999997,476.468658 
	C1.663630,476.439362 2.728933,476.741669 2.932429,477.338043 
	C8.740251,494.358337 19.999290,505.778473 37.280766,511.126465 
	C37.829750,511.296326 38.216511,511.990417 38.339447,512.720093 
	C25.740049,513.000000 13.480098,513.000000 1.000000,513.000000 
	C1.000000,500.980011 1.000000,488.958649 0.999997,476.468658 
z"/>
<path fill="#000000" opacity="1.000000" stroke="none" 
	d="
M476.468658,513.000000 
	C476.439362,512.336365 476.741669,511.271057 477.338043,511.067566 
	C494.358398,505.259857 505.778320,494.000641 511.126434,476.719238 
	C511.296326,476.170258 511.990387,475.783478 512.720093,475.660522 
	C513.000000,488.259949 513.000000,500.519897 513.000000,513.000000 
	C500.980011,513.000000 488.958649,513.000000 476.468658,513.000000 
z"/>
<path fill="#FFFFFE" opacity="1.000000" stroke="none" 
	d="
M113.505180,140.528717 
	C124.912323,128.284058 139.367950,121.966774 154.500000,117.029655 
	C188.086426,106.071396 222.805145,102.612953 257.910278,102.124390 
	C267.178802,101.995392 273.684357,108.799873 273.322083,118.011642 
	C272.890839,128.976288 270.628632,139.454849 263.954834,148.560776 
	C263.305725,149.446472 262.995819,150.631943 262.710724,151.725769 
	C255.790482,178.276566 248.894180,204.833603 241.998322,231.390732 
	C241.750626,232.344650 241.551010,233.311020 241.159180,235.006180 
	C246.979675,235.006180 252.536957,234.947540 258.092651,235.016571 
	C279.582428,235.283600 301.073425,235.511246 322.559509,235.965149 
	C326.017548,236.038193 327.404785,235.133057 328.289307,231.645950 
	C336.308624,200.030655 344.941010,168.603088 357.949677,138.564392 
	C365.495178,121.140869 375.829376,105.852646 391.279114,94.493530 
	C394.297943,92.273987 397.895508,90.664848 401.447998,89.394684 
	C405.489777,87.949608 408.783966,89.698067 408.983490,94.045639 
	C409.454956,104.319511 410.689575,114.817200 409.221405,124.874886 
	C403.862823,161.584320 397.288391,198.114227 391.615936,234.780457 
	C385.255676,275.892517 378.925720,317.019897 373.514465,358.262878 
	C371.398712,374.388336 371.772369,390.844482 371.099670,407.153595 
	C370.763367,415.307556 367.796173,418.941803 359.584625,420.087280 
	C348.171143,421.679474 336.940887,420.407501 326.125916,416.565735 
	C315.524445,412.799774 310.357880,404.366211 307.956909,393.857666 
	C304.833496,380.187286 304.977325,366.319183 306.587158,352.585144 
	C309.354889,328.973083 312.894257,305.451477 316.189789,281.305328 
	C310.987610,281.037842 305.273926,280.602112 299.553375,280.475098 
	C277.404785,279.983185 255.252548,279.649506 233.105469,279.103119 
	C229.205429,279.006897 227.785339,280.517456 226.847946,284.268250 
	C219.254776,314.650360 212.433304,345.168213 209.537308,376.420197 
	C208.861572,383.712189 208.365952,391.050293 208.359543,398.367645 
	C208.350922,408.229767 203.635559,414.914490 195.075333,418.848053 
	C182.340698,424.699799 168.688416,425.558624 154.951218,424.774811 
	C149.377518,424.456787 145.868149,420.497986 144.921265,413.979248 
	C142.153275,394.923218 141.451050,375.712219 144.606888,356.725464 
	C148.232132,334.914734 153.079803,313.307251 157.389343,291.610077 
	C157.668701,290.203674 157.886978,288.785095 158.240082,286.762543 
	C150.110291,287.721222 142.566360,288.717957 134.997772,289.465332 
	C130.029770,289.955872 125.027672,290.286865 120.038139,290.323822 
	C114.586731,290.364227 112.430984,287.788269 114.362106,282.663574 
	C115.966492,278.405914 118.418495,274.219238 121.386734,270.768036 
	C132.790283,257.509064 148.125671,250.697906 164.489105,246.017487 
	C168.691147,244.815582 170.489639,242.724716 171.885574,238.651749 
	C181.423218,210.823685 191.318893,183.118317 201.096725,155.372574 
	C201.416275,154.465820 201.710403,153.550095 202.238358,151.977264 
	C186.391846,152.176346 171.337677,153.940826 156.610611,158.349915 
	C143.900742,162.155090 133.098282,169.153763 123.322250,177.929504 
	C121.712433,179.374619 120.112167,180.862244 118.340271,182.088593 
	C114.079521,185.037521 110.973358,184.593353 108.253235,180.147980 
	C102.024605,169.968781 103.066177,159.466202 107.808464,149.117249 
	C109.175194,146.134689 111.422714,143.555740 113.505180,140.528717 
z"/>
</svg>