<svg width="226" height="45" viewBox="0 0 226 45" fill="none" xmlns="http://www.w3.org/2000/svg">
<path d="M0.539773 44V3.27273H9.15057V20.0767H26.6307V3.27273H35.2216V44H26.6307V27.1761H9.15057V44H0.539773ZM54.7311 44.5966C51.6421 44.5966 48.9707 43.9403 46.7169 42.6278C44.4763 41.3021 42.7462 39.4593 41.5265 37.0994C40.3068 34.7263 39.697 31.9754 39.697 28.8466C39.697 25.6913 40.3068 22.9337 41.5265 20.5739C42.7462 18.2008 44.4763 16.358 46.7169 15.0455C48.9707 13.7197 51.6421 13.0568 54.7311 13.0568C57.8201 13.0568 60.4849 13.7197 62.7254 15.0455C64.9792 16.358 66.7159 18.2008 67.9356 20.5739C69.1553 22.9337 69.7652 25.6913 69.7652 28.8466C69.7652 31.9754 69.1553 34.7263 67.9356 37.0994C66.7159 39.4593 64.9792 41.3021 62.7254 42.6278C60.4849 43.9403 57.8201 44.5966 54.7311 44.5966ZM54.7708 38.0341C56.1761 38.0341 57.3494 37.6364 58.2907 36.8409C59.232 36.0322 59.9413 34.9318 60.4186 33.5398C60.9091 32.1477 61.1544 30.5634 61.1544 28.7869C61.1544 27.0104 60.9091 25.4261 60.4186 24.0341C59.9413 22.642 59.232 21.5417 58.2907 20.733C57.3494 19.9242 56.1761 19.5199 54.7708 19.5199C53.3523 19.5199 52.1591 19.9242 51.1913 20.733C50.2368 21.5417 49.5142 22.642 49.0237 24.0341C48.5464 25.4261 48.3078 27.0104 48.3078 28.7869C48.3078 30.5634 48.5464 32.1477 49.0237 33.5398C49.5142 34.9318 50.2368 36.0322 51.1913 36.8409C52.1591 37.6364 53.3523 38.0341 54.7708 38.0341ZM82.5133 3.27273V44H74.0417V3.27273H82.5133ZM88.0675 44V13.4545H96.5391V44H88.0675ZM92.3232 9.51704C91.0637 9.51704 89.9832 9.09943 89.0817 8.2642C88.1934 7.41572 87.7493 6.40151 87.7493 5.22159C87.7493 4.05492 88.1934 3.05398 89.0817 2.21875C89.9832 1.37026 91.0637 0.946021 92.3232 0.946021C93.5826 0.946021 94.6565 1.37026 95.5448 2.21875C96.4463 3.05398 96.897 4.05492 96.897 5.22159C96.897 6.40151 96.4463 7.41572 95.5448 8.2642C94.6565 9.09943 93.5826 9.51704 92.3232 9.51704ZM113.349 44.4972C111.029 44.4972 108.928 43.9006 107.045 42.7074C105.176 41.5009 103.691 39.7311 102.59 37.3977C101.503 35.0511 100.96 32.1742 100.96 28.767C100.96 25.267 101.523 22.357 102.65 20.0369C103.777 17.7036 105.275 15.9602 107.144 14.8068C109.027 13.6402 111.089 13.0568 113.329 13.0568C115.039 13.0568 116.465 13.3485 117.605 13.9318C118.758 14.5019 119.686 15.2178 120.389 16.0795C121.105 16.928 121.648 17.7633 122.019 18.5852H122.278V3.27273H130.73V44H122.377V39.108H122.019C121.622 39.9564 121.058 40.7983 120.329 41.6335C119.613 42.4555 118.679 43.1383 117.525 43.6818C116.385 44.2254 114.993 44.4972 113.349 44.4972ZM116.034 37.7557C117.399 37.7557 118.553 37.3845 119.494 36.642C120.448 35.8864 121.178 34.8324 121.681 33.4801C122.198 32.1278 122.457 30.5436 122.457 28.7273C122.457 26.911 122.205 25.3333 121.701 23.9943C121.197 22.6553 120.468 21.6212 119.514 20.892C118.559 20.1629 117.399 19.7983 116.034 19.7983C114.642 19.7983 113.468 20.1761 112.514 20.9318C111.559 21.6875 110.837 22.7348 110.346 24.0739C109.856 25.4129 109.61 26.964 109.61 28.7273C109.61 30.5038 109.856 32.0748 110.346 33.4403C110.85 34.7926 111.572 35.8532 112.514 36.6222C113.468 37.3778 114.642 37.7557 116.034 37.7557ZM145.173 44.5767C143.224 44.5767 141.487 44.2386 139.963 43.5625C138.438 42.8731 137.232 41.8589 136.344 40.5199C135.469 39.1676 135.031 37.4839 135.031 35.4688C135.031 33.7718 135.343 32.3466 135.966 31.1932C136.589 30.0398 137.437 29.1117 138.511 28.4091C139.585 27.7064 140.805 27.1761 142.17 26.8182C143.549 26.4602 144.994 26.2083 146.505 26.0625C148.282 25.8769 149.714 25.7045 150.801 25.5455C151.888 25.3731 152.677 25.1212 153.167 24.7898C153.658 24.4583 153.903 23.9678 153.903 23.3182V23.1989C153.903 21.9394 153.505 20.965 152.71 20.2756C151.928 19.5862 150.814 19.2415 149.369 19.2415C147.844 19.2415 146.631 19.5795 145.73 20.2557C144.828 20.9186 144.232 21.7538 143.94 22.7614L136.105 22.125C136.503 20.2689 137.285 18.6648 138.452 17.3125C139.618 15.947 141.123 14.8996 142.966 14.1705C144.822 13.428 146.969 13.0568 149.409 13.0568C151.106 13.0568 152.73 13.2557 154.281 13.6534C155.845 14.0511 157.231 14.6676 158.437 15.5028C159.657 16.3381 160.618 17.4119 161.321 18.7244C162.023 20.0237 162.375 21.5814 162.375 23.3977V44H154.341V39.7642H154.102C153.612 40.7188 152.955 41.5606 152.133 42.2898C151.311 43.0057 150.324 43.5691 149.17 43.9801C148.017 44.3778 146.684 44.5767 145.173 44.5767ZM147.599 38.7301C148.845 38.7301 149.946 38.4848 150.9 37.9943C151.855 37.4905 152.604 36.8144 153.148 35.9659C153.691 35.1174 153.963 34.1562 153.963 33.0824V29.8409C153.698 30.0133 153.333 30.1723 152.869 30.3182C152.418 30.4508 151.908 30.5767 151.338 30.696C150.768 30.8021 150.198 30.9015 149.628 30.9943C149.058 31.0739 148.541 31.1468 148.077 31.2131C147.082 31.3589 146.214 31.5909 145.471 31.9091C144.729 32.2273 144.152 32.6581 143.741 33.2017C143.33 33.732 143.125 34.3949 143.125 35.1903C143.125 36.3438 143.542 37.2254 144.378 37.8352C145.226 38.4318 146.3 38.7301 147.599 38.7301ZM167.556 44V38.9489L182.511 20.4347V20.2159H168.073V13.4545H192.712V18.9631L178.673 37.0199V37.2386H193.229V44H167.556ZM211.521 44.5966C208.379 44.5966 205.674 43.9602 203.407 42.6875C201.153 41.4015 199.417 39.5852 198.197 37.2386C196.977 34.8788 196.367 32.0881 196.367 28.8665C196.367 25.7244 196.977 22.9669 198.197 20.5938C199.417 18.2206 201.134 16.3712 203.348 15.0455C205.575 13.7197 208.187 13.0568 211.183 13.0568C213.198 13.0568 215.074 13.3816 216.811 14.0312C218.561 14.6676 220.085 15.6288 221.385 16.9148C222.697 18.2008 223.718 19.8182 224.447 21.767C225.176 23.7027 225.541 25.9697 225.541 28.5682V30.8949H199.748V25.6449H217.566C217.566 24.4252 217.301 23.3447 216.771 22.4034C216.241 21.4621 215.505 20.7263 214.564 20.196C213.635 19.6525 212.555 19.3807 211.322 19.3807C210.036 19.3807 208.896 19.679 207.902 20.2756C206.921 20.8589 206.152 21.6477 205.595 22.642C205.038 23.6231 204.753 24.7169 204.74 25.9233V30.9148C204.74 32.4261 205.018 33.732 205.575 34.8324C206.145 35.9328 206.947 36.7812 207.981 37.3778C209.015 37.9744 210.242 38.2727 211.66 38.2727C212.601 38.2727 213.463 38.1402 214.245 37.875C215.028 37.6098 215.697 37.2121 216.254 36.6818C216.811 36.1515 217.235 35.5019 217.527 34.733L225.362 35.25C224.964 37.1326 224.149 38.7765 222.916 40.1818C221.696 41.5739 220.118 42.661 218.183 43.4432C216.26 44.2121 214.04 44.5966 211.521 44.5966Z" fill="#1E1E1E"/>
</svg>
